<svg id="Layer_1" data-name="Layer 1" xmlns="http://www.w3.org/2000/svg" viewBox="0 0 100 100"><path d="M30.25,52.81a6.36,6.36,0,0,0-4.27,11l.84-.83-.84.83a6.25,6.25,0,0,0,4.27,1.7,6.38,6.38,0,0,0,6.38-6.39V52.81H30.25Z" style="fill:none"/><path d="M74.3,35.23a6.34,6.34,0,0,0-10.92,4.39V46h6.34a6.37,6.37,0,0,0,6.37-6.39A6.28,6.28,0,0,0,74.3,35.23Z" style="fill:none"/><path d="M50,0A50.12,50.12,0,0,0,0,50.13c2.75,66.5,97.26,66.49,100,0A50.12,50.12,0,0,0,50,0ZM6.78,50.13A43.39,43.39,0,0,1,36.63,8.92V46c-1.56,0-4.81,0-6.38,0-11.82,0-17.54,14.57-9.06,22.65,8.17,8,22.25,2.06,22.22-9.49V52.81H56.6V93C30.77,97.16,6.55,76.39,6.78,50.13Zm29.85,2.68c0,.77,0,5.48,0,6.36a6.36,6.36,0,1,1-6.38-6.36ZM63.38,91.33V52.81h6.34c11.6,0,17.5-14.23,9.37-22.39C71,22.08,56.63,27.84,56.6,39.62c0,1.24,0,5.22,0,6.39H43.41V7.3c25.82-4.2,50,16.56,49.81,42.83A43.4,43.4,0,0,1,63.38,91.33Zm0-45.32V39.62A6.36,6.36,0,1,1,69.72,46Z" style="fill:#fff"/></svg>